<svg id="圖層_1" data-name="圖層 1" xmlns="http://www.w3.org/2000/svg" viewBox="0 0 224.84 122"><defs><style>.cls-1{fill:none;}.cls-2{font-size:70px;fill:#fff;font-family:PingFangTC-Semibold-B5pc-H, PingFang TC;font-weight:700;letter-spacing:0.07em;}.cls-3{fill:#fec300;}</style></defs><title>burger_1-01</title><rect class="cls-1" width="224.84" height="122"/><text class="cls-2" transform="translate(39.76 87.59)">119</text><path class="cls-3" d="M856.22,777.88l2.07-3.14a9.45,9.45,0,0,0,5.93,2.5c2.61,0,3.86-1.27,3.86-3.42,0-5.28-10.87-4.56-10.87-12.05,0-4.34,3.08-7.18,7.73-7.18a9.28,9.28,0,0,1,7.18,3.23l-2.36,2.67c-1.48-1.38-2.7-2.14-4.61-2.14-2.18,0-3.49,1.15-3.49,3.19,0,4.8,10.86,3.84,10.86,12,0,4.43-3,7.5-8.3,7.5A12.71,12.71,0,0,1,856.22,777.88Zm6.93-27.21h3.17v5.45h-3.17Zm0,28.54h3.17v5.71h-3.17Z" transform="translate(-676.53 -698)"/></svg>