<svg id="圖層_1" data-name="圖層 1" xmlns="http://www.w3.org/2000/svg" viewBox="0 0 224.84 122"><defs><style>.cls-1{fill:none;}.cls-2{font-size:70px;fill:#fff;font-family:PingFangTC-Semibold-B5pc-H, PingFang TC;font-weight:700;letter-spacing:0.07em;}.cls-3{fill:#fec300;}</style></defs><title>burger_3-01</title><rect class="cls-1" width="224.84" height="122"/><text class="cls-2" transform="translate(39.76 87.59)">109</text><path class="cls-3" d="M857.23,543.88l2.06-3.14a9.47,9.47,0,0,0,5.94,2.5c2.6,0,3.85-1.27,3.85-3.42,0-5.28-10.86-4.56-10.86-12.05,0-4.34,3.08-7.18,7.73-7.18a9.26,9.26,0,0,1,7.17,3.23l-2.36,2.67a6.24,6.24,0,0,0-4.61-2.14c-2.18,0-3.48,1.15-3.48,3.2,0,4.79,10.86,3.83,10.86,12,0,4.43-3,7.5-8.3,7.5A12.71,12.71,0,0,1,857.23,543.88Zm6.92-27.21h3.17v5.45h-3.17Zm0,28.54h3.17v5.71h-3.17Z" transform="translate(-677.53 -464)"/></svg>