<svg id="圖層_1" data-name="圖層 1" xmlns="http://www.w3.org/2000/svg" viewBox="0 0 640 260"><defs><style>.cls-1{fill:none;}.cls-2,.cls-4{fill:#fec300;}.cls-3{fill:#262628;stroke:#fec300;stroke-miterlimit:10;stroke-width:2px;}.cls-4{font-size:53.35px;letter-spacing:0.07em;}.cls-4,.cls-5,.cls-6,.cls-8{font-family:PingFangTC-Semibold-B5pc-H, PingFang TC;font-weight:700;}.cls-5,.cls-8{font-size:30.99px;}.cls-5,.cls-6,.cls-7,.cls-8,.cls-9{fill:#fff;}.cls-5{letter-spacing:0.07em;}.cls-6{font-size:14.61px;letter-spacing:0.07em;}.cls-7,.cls-9{font-size:11.46px;font-family:PingFangTC-Regular-B5pc-H, PingFang TC;}.cls-7{letter-spacing:0.07em;}.cls-8{letter-spacing:0.08em;}.cls-9{letter-spacing:0.08em;}</style></defs><title>burger_1-03</title><rect class="cls-1" width="640" height="260"/><circle class="cls-2" cx="477.21" cy="157.45" r="4.62"/><circle class="cls-2" cx="477.21" cy="173.55" r="4.62"/><circle class="cls-2" cx="477.21" cy="189.66" r="4.62"/><circle class="cls-2" cx="477.21" cy="205.77" r="4.62"/><circle class="cls-2" cx="477.21" cy="221.88" r="4.62"/><circle class="cls-2" cx="492.72" cy="157.45" r="4.62"/><circle class="cls-2" cx="492.72" cy="173.55" r="4.62"/><circle class="cls-2" cx="492.72" cy="189.66" r="4.62"/><circle class="cls-2" cx="492.72" cy="205.77" r="4.62"/><circle class="cls-2" cx="492.72" cy="221.88" r="4.62"/><circle class="cls-2" cx="508.23" cy="157.45" r="4.62"/><circle class="cls-2" cx="508.23" cy="173.55" r="4.62"/><circle class="cls-2" cx="508.23" cy="189.66" r="4.62"/><circle class="cls-2" cx="508.23" cy="205.77" r="4.62"/><circle class="cls-2" cx="508.23" cy="221.88" r="4.62"/><circle class="cls-2" cx="523.74" cy="157.45" r="4.62"/><circle class="cls-2" cx="523.74" cy="173.55" r="4.62"/><circle class="cls-2" cx="523.74" cy="189.66" r="4.62"/><circle class="cls-2" cx="523.74" cy="205.77" r="4.62"/><circle class="cls-2" cx="523.74" cy="221.88" r="4.62"/><circle class="cls-2" cx="539.26" cy="157.45" r="4.62"/><circle class="cls-2" cx="539.26" cy="173.55" r="4.62"/><circle class="cls-2" cx="539.26" cy="189.66" r="4.62"/><circle class="cls-2" cx="539.26" cy="205.77" r="4.62"/><circle class="cls-2" cx="539.26" cy="221.88" r="4.62"/><circle class="cls-2" cx="554.77" cy="157.45" r="4.62"/><circle class="cls-2" cx="554.77" cy="173.55" r="4.62"/><circle class="cls-2" cx="554.77" cy="189.66" r="4.62"/><circle class="cls-2" cx="554.77" cy="205.77" r="4.62"/><circle class="cls-2" cx="554.77" cy="221.88" r="4.62"/><circle class="cls-2" cx="570.28" cy="157.45" r="4.62"/><circle class="cls-2" cx="570.28" cy="173.55" r="4.62"/><circle class="cls-2" cx="570.28" cy="189.66" r="4.62"/><circle class="cls-2" cx="570.28" cy="205.77" r="4.62"/><circle class="cls-2" cx="570.28" cy="221.88" r="4.62"/><circle class="cls-2" cx="585.79" cy="157.45" r="4.62"/><circle class="cls-2" cx="585.79" cy="173.55" r="4.62"/><circle class="cls-2" cx="585.79" cy="189.66" r="4.62"/><circle class="cls-2" cx="585.79" cy="205.77" r="4.62"/><circle class="cls-2" cx="585.79" cy="221.88" r="4.62"/><rect class="cls-3" x="49.54" y="125.91" width="505" height="81.27" rx="15" ry="15"/><text class="cls-4" transform="translate(75.97 79.02)">蕈菇安格斯黑牛堡</text><text class="cls-5" transform="translate(93.69 176)">575</text><text class="cls-6" transform="translate(158.15 164.89)">熱量</text><text class="cls-7" transform="translate(158.15 177.74)">kcal</text><text class="cls-6" transform="translate(489.73 164.89)">鈉</text><text class="cls-8" transform="translate(426.09 176)">940</text><text class="cls-9" transform="translate(489.73 177.74)">mg</text><text class="cls-6" transform="translate(302.36 164.89)">蛋白質</text><text class="cls-8" transform="translate(259.2 176)">30</text><text class="cls-9" transform="translate(302.25 177.74)">g</text></svg>