<svg id="圖層_5" data-name="圖層 5" xmlns="http://www.w3.org/2000/svg" viewBox="0 0 58.29 46.29"><defs><style>.cls-1{fill:#fff;}</style></defs><title>icon_side_04</title><path class="cls-1" d="M879.94,681.86a23.15,23.15,0,0,1,23.14-23.15h-4.29a23.15,23.15,0,0,0,0,46.29h4.29A23.14,23.14,0,0,1,879.94,681.86Z" transform="translate(-875.65 -658.71)"/><path class="cls-1" d="M910.79,658.71a23.15,23.15,0,1,0,23.15,23.15A23.15,23.15,0,0,0,910.79,658.71Zm3.31,37h-6.56V681.63a26.34,26.34,0,0,0-.14-3.67,1.41,1.41,0,0,0-.81-.94,8.4,8.4,0,0,0-2.93-.31H903v-3.07a11.91,11.91,0,0,0,7.23-4.21h3.86Zm10.11-21a2.77,2.77,0,0,1-1.85.9v.9h-1.1v-.93a2.86,2.86,0,0,1-1.68-.74,2.91,2.91,0,0,1-.72-2.24v-.47h2.4v.59a5.66,5.66,0,0,0,.07,1.2.34.34,0,0,0,.36.23.42.42,0,0,0,.37-.16.91.91,0,0,0,.11-.49,4,4,0,0,0-.11-1.15c-.07-.23-.33-.48-.77-.76a15.83,15.83,0,0,1-1.49-1,2.66,2.66,0,0,1-.69-.91,3,3,0,0,1-.28-1.33,2.25,2.25,0,0,1,.61-1.68,3,3,0,0,1,1.82-.76v-.76h1.1v.76a2.69,2.69,0,0,1,1.67.75,2.39,2.39,0,0,1,.55,1.66q0,.15,0,.45h-2.39v-.39a2.48,2.48,0,0,0-.09-.84.33.33,0,0,0-.35-.19.37.37,0,0,0-.33.17.88.88,0,0,0-.11.51,1.09,1.09,0,0,0,.22.78,8.55,8.55,0,0,0,1.3.88,9,9,0,0,1,1.24.85,2.2,2.2,0,0,1,.56.83,3.29,3.29,0,0,1,.23,1.34A3,3,0,0,1,924.21,674.75Z" transform="translate(-875.65 -658.71)"/></svg>