<svg id="圖層_5" data-name="圖層 5" xmlns="http://www.w3.org/2000/svg" viewBox="0 0 47.79 49.71"><defs><style>.cls-1{fill:#fff;}</style></defs><title>icon_side_02</title><path class="cls-1" d="M903.8,461.76H888a2.57,2.57,0,0,1-2.56-2.38l-2.33-31a.86.86,0,0,1,.86-.92h23.86a.86.86,0,0,1,.86.92l-2.33,31A2.57,2.57,0,0,1,903.8,461.76Z" transform="translate(-880.9 -412.05)"/><path class="cls-1" d="M910.9,423.15V425a.82.82,0,0,1-.81.81H881.71a.82.82,0,0,1-.81-.81v-1.8a.82.82,0,0,1,.81-.82H895V412.9a.86.86,0,0,1,.86-.85h9.21a.43.43,0,0,1,.43.43v.85a.43.43,0,0,1-.43.43h-7.92a.43.43,0,0,0-.43.43v8.14h13.33A.82.82,0,0,1,910.9,423.15Z" transform="translate(-880.9 -412.05)"/><path class="cls-1" d="M928.69,435.19l-5.15,26.57H909l1.72-20.57c.2.06.41.1.61.15l.78-8.85a.44.44,0,0,1,.47-.39l.85.07a.44.44,0,0,1,.39.47l-.79,9c.29,0,.57,0,.86.05l.55-6.38a.44.44,0,0,1,.48-.39l.84.07a.44.44,0,0,1,.4.47l-.54,6.19.86-.1.68-7.73a.41.41,0,0,1,.46-.38l.86.07a.44.44,0,0,1,.39.46l-.64,7.22c.3-.06.59-.15.89-.24l.45-5.2a.43.43,0,0,1,.46-.38l.86.07a.43.43,0,0,1,.39.47l-.39,4.4c.31-.12.61-.26.9-.39l.2-2.23a.43.43,0,0,1,.46-.4l.85.08a.43.43,0,0,1,.39.46l-.1,1.17c.32-.18.62-.37.91-.55l.57-6.51a.44.44,0,0,1,.47-.4l.84.08a.43.43,0,0,1,.4.46l-.46,5.13A23.66,23.66,0,0,0,928.69,435.19Z" transform="translate(-880.9 -412.05)"/></svg>