<svg id="圖層_5" data-name="圖層 5" xmlns="http://www.w3.org/2000/svg" viewBox="0 0 54.86 49.99"><defs><style>.cls-1{fill:#fff;}</style></defs><title>icon_side_03</title><path class="cls-1" d="M893,584.1h15.8a2.57,2.57,0,0,0,2.56-2.38l2.32-31a.86.86,0,0,0-.85-.93H889a.86.86,0,0,0-.86.93l2.32,31A2.58,2.58,0,0,0,893,584.1Z" transform="translate(-877.36 -534.39)"/><path class="cls-1" d="M929.35,571.51A2.75,2.75,0,0,0,932,568a12.59,12.59,0,0,0-17.15-8L914,571.51Z" transform="translate(-877.36 -534.39)"/><path class="cls-1" d="M930.3,579.56H913.39l-.29,3.93a2.6,2.6,0,0,1-.24.89H930.3a1.93,1.93,0,0,0,1.92-1.93v-1A1.92,1.92,0,0,0,930.3,579.56Z" transform="translate(-877.36 -534.39)"/><path class="cls-1" d="M930.57,575a1.24,1.24,0,0,0,0-2.48H913.92l-.19,2.48Z" transform="translate(-877.36 -534.39)"/><path class="cls-1" d="M914.49,578.09l4.45.77a5.44,5.44,0,0,0,1.8,0l4.64-.77a5.35,5.35,0,0,1,2.11.06l3.08.71a1,1,0,0,0,1.24-1v-.13a1,1,0,0,0-.78-1l-3.57-.82a5.36,5.36,0,0,0-2.11-.06l-4.6.77a5.3,5.3,0,0,1-1.82,0l-4.44-.76a4.47,4.47,0,0,0-.82-.07l-.16,2.2A5.32,5.32,0,0,1,914.49,578.09Z" transform="translate(-877.36 -534.39)"/><path class="cls-1" d="M885.94,545.49v1.8a.81.81,0,0,0,.81.81h28.37a.82.82,0,0,0,.82-.81v-1.8a.82.82,0,0,0-.82-.82H901.79v-9.43a.85.85,0,0,0-.85-.85h-9.22a.42.42,0,0,0-.43.42v.86a.43.43,0,0,0,.43.43h7.93a.43.43,0,0,1,.43.43v8.14H886.75A.82.82,0,0,0,885.94,545.49Z" transform="translate(-877.36 -534.39)"/><path class="cls-1" d="M888.14,582.11l-1.63-21.7-.59.05a.36.36,0,0,0-.32.38l.53,6a6.21,6.21,0,0,1-.74-.2l-.38-4.35a.37.37,0,0,0-.39-.32l-.71.07a.34.34,0,0,0-.33.38l.33,3.69c-.26-.1-.51-.22-.76-.33L883,564a.37.37,0,0,0-.39-.33l-.71.07a.37.37,0,0,0-.33.39l.09,1c-.27-.15-.52-.31-.76-.46l-.48-5.44a.36.36,0,0,0-.39-.33l-.71.06a.37.37,0,0,0-.33.39l.38,4.28a18.59,18.59,0,0,1-2-1.66l4.3,22.21h7.7C888.65,584.1,888.22,583.23,888.14,582.11Z" transform="translate(-877.36 -534.39)"/></svg>