<svg id="圖層_5" data-name="圖層 5" xmlns="http://www.w3.org/2000/svg" viewBox="0 0 47.06 48.86"><defs><style>.cls-1{fill:#fff;}</style></defs><title>icon_side_01</title><path class="cls-1" d="M886.56,314.16a5.27,5.27,0,0,1-5.09-6.7,24.17,24.17,0,0,1,46.44,0,5.27,5.27,0,0,1-5.09,6.7Z" transform="translate(-881.26 -290)"/><rect class="cls-1" x="0.32" y="39.61" width="46.74" height="9.24" rx="3.7" ry="3.7"/><rect class="cls-1" x="0.32" y="26.15" width="45.95" height="4.75" rx="2.38" ry="2.38"/><path class="cls-1" d="M925.16,328.27l-5.92-1.36a10.37,10.37,0,0,0-4-.13l-8.91,1.49a10.36,10.36,0,0,1-3.47,0l-8.53-1.47a10.41,10.41,0,0,0-4,.1l-6.34,1.41a1.94,1.94,0,0,1-2.36-1.89v-.26a1.94,1.94,0,0,1,1.52-1.89l7.18-1.6a10.41,10.41,0,0,1,4-.09l8.53,1.46a10.42,10.42,0,0,0,3.48,0l8.84-1.48a10.37,10.37,0,0,1,4,.12l6.85,1.57a1.94,1.94,0,0,1,1.5,1.89v.25A1.93,1.93,0,0,1,925.16,328.27Z" transform="translate(-881.26 -290)"/></svg>