<svg id="圖層_4" data-name="圖層 4" xmlns="http://www.w3.org/2000/svg" viewBox="0 0 641 172"><defs><style>.cls-1{fill:none;}.cls-2{fill:#fec300;}.cls-3{font-size:36.36px;letter-spacing:0.08em;}.cls-3,.cls-4{fill:#fff;font-family:PingFangTC-Semibold-B5pc-H, PingFang TC;font-weight:700;}.cls-4{font-size:64.94px;letter-spacing:0.07em;}</style></defs><title>latte_3-01</title><rect class="cls-1" width="641" height="172"/><path class="cls-2" d="M1714.06,350.56l1.08-1.63a4.92,4.92,0,0,0,3.08,1.29c1.36,0,2-.66,2-1.77,0-2.75-5.64-2.37-5.64-6.26,0-2.26,1.6-3.74,4-3.74a4.83,4.83,0,0,1,3.73,1.68l-1.22,1.39a3.28,3.28,0,0,0-2.4-1.11,1.59,1.59,0,0,0-1.81,1.66c0,2.49,5.65,2,5.65,6.21,0,2.3-1.58,3.9-4.32,3.9A6.61,6.61,0,0,1,1714.06,350.56Zm3.6-14.14h1.65v2.83h-1.65Zm0,14.83h1.65v3h-1.65Z" transform="translate(-1210 -236)"/><path class="cls-2" d="M1632.91,338.34h2.41V349.9H1641v2h-8Z" transform="translate(-1210 -236)"/><text class="cls-3" transform="translate(446.93 82.66)">75</text><text class="cls-3" transform="translate(446.93 115.66)">90</text><path class="cls-2" d="M1714.56,314.66l1.08-1.63a4.92,4.92,0,0,0,3.08,1.29c1.36,0,2-.66,2-1.78,0-2.74-5.64-2.36-5.64-6.25,0-2.26,1.6-3.74,4-3.74a4.83,4.83,0,0,1,3.73,1.68l-1.22,1.39a3.28,3.28,0,0,0-2.4-1.11,1.59,1.59,0,0,0-1.81,1.66c0,2.49,5.65,2,5.65,6.21,0,2.3-1.58,3.9-4.32,3.9A6.61,6.61,0,0,1,1714.56,314.66Zm3.6-14.14h1.65v2.83h-1.65Zm0,14.83h1.65v3h-1.65Z" transform="translate(-1210 -236)"/><path class="cls-2" d="M1633.8,302.44h2.72l2.4,6.64c.3.86.58,1.78.88,2.67h.08c.3-.89.56-1.81.86-2.67l2.35-6.64h2.73V316h-2.22v-6.22c0-1.26.2-3.06.31-4.32h-.08l-1.1,3.16-2.23,6.1h-1.43l-2.25-6.1-1.08-3.16h-.08c.11,1.26.3,3.06.3,4.32V316h-2.16Z" transform="translate(-1210 -236)"/><text class="cls-4" transform="translate(126.97 110.54)">特選那堤</text></svg>